<svg xmlns="http://www.w3.org/2000/svg" width="1200" height="630" viewBox="0 0 1200 630">
  <defs>
    <linearGradient id="bg" x1="0" y1="0" x2="1200" y2="630" gradientUnits="userSpaceOnUse">
      <stop offset="0%" stop-color="#0f172a" />
      <stop offset="100%" stop-color="#111827" />
    </linearGradient>
    <linearGradient id="accent" x1="0" y1="0" x2="1200" y2="0">
      <stop offset="0%" stop-color="#6366f1" />
      <stop offset="100%" stop-color="#06b6d4" />
    </linearGradient>
    <filter id="shadow" x="-20%" y="-20%" width="140%" height="140%">
      <feDropShadow dx="0" dy="30" stdDeviation="40" flood-color="#0ea5e9" flood-opacity="0.3" />
    </filter>
  </defs>
  <rect width="1200" height="630" fill="url(#bg)" />
  <circle cx="1050" cy="120" r="180" fill="#0f172a" opacity="0.35" />
  <circle cx="100" cy="550" r="200" fill="#06b6d4" opacity="0.2" />
  <text x="120" y="170" font-family="'Inter', 'Segoe UI', sans-serif" font-weight="600" font-size="56" fill="#a5b4fc" letter-spacing="0.3em" text-transform="uppercase">FakeFace Studio</text>
  <text x="120" y="245" font-family="'Inter', 'Segoe UI', sans-serif" font-weight="600" font-size="88" fill="#ffffff">Troque rostos com IA</text>
  <text x="120" y="315" font-family="'Inter', 'Segoe UI', sans-serif" font-weight="400" font-size="30" fill="#cbd5f5">Uploads guiados, preview instantâneo e downloads em um painel inspirado em ferramentas profissionais.</text>
  <g transform="translate(120,360)" filter="url(#shadow)">
    <rect width="960" height="220" rx="32" fill="#1e293b" stroke="rgba(255,255,255,0.15)" />
    <rect x="32" y="32" width="280" height="156" rx="24" fill="#0f172a" stroke="rgba(255,255,255,0.1)" />
    <rect x="352" y="32" width="280" height="156" rx="24" fill="#0f172a" stroke="rgba(255,255,255,0.1)" />
    <rect x="672" y="32" width="256" height="156" rx="24" fill="#020617" stroke="rgba(255,255,255,0.15)" />
    <rect x="680" y="40" width="240" height="140" rx="20" fill="#1d4ed8" opacity="0.15" />
    <rect x="700" y="60" width="200" height="100" rx="16" fill="#0ea5e9" opacity="0.15" />
    <text x="64" y="120" font-family="'Inter', sans-serif" font-weight="600" font-size="26" fill="#e0e7ff">Upload original</text>
    <text x="384" y="120" font-family="'Inter', sans-serif" font-weight="600" font-size="26" fill="#e0e7ff">Imagem destino</text>
    <text x="712" y="120" font-family="'Inter', sans-serif" font-weight="600" font-size="26" fill="#f9fafb">Preview vivo</text>
  </g>
  <g transform="translate(880,90)">
    <rect width="200" height="200" rx="50" fill="url(#accent)" />
    <path d="M50 40c-10 11-15 26-15 40s5 29 15 40l32 30 32-30c10-11 15-26 15-40s-5-29-15-40L82 10 50 40z" fill="#0f172a" opacity="0.4" />
    <path d="M60 60c-5.4 7-8.6 16-8.6 24s3.2 17 8.6 24L100 140l40-32c5.4-7 8.6-16 8.6-24S145.4 67 140 60L100 28 60 60z" fill="#fff" opacity="0.85" />
    <circle cx="100" cy="92" r="20" fill="#0f172a" opacity="0.4" />
  </g>
</svg>