<svg width="256" height="256" viewBox="0 0 64 64" xmlns="http://www.w3.org/2000/svg">
  <defs>
    <linearGradient id="bg" x1="0" y1="0" x2="64" y2="64" gradientUnits="userSpaceOnUse">
      <stop offset="0" stop-color="#6366F1" />
      <stop offset="1" stop-color="#06B6D4" />
    </linearGradient>
    <linearGradient id="glow" x1="18" y1="12" x2="52" y2="52" gradientUnits="userSpaceOnUse">
      <stop offset="0" stop-color="#FFFFFF" stop-opacity="0.85" />
      <stop offset="1" stop-color="#FFFFFF" stop-opacity="0.2" />
    </linearGradient>
  </defs>
  <rect width="64" height="64" rx="18" fill="url(#bg)" />
  <path d="M20 16c-4 4.5-6 10.7-6 16s2 11.5 6 16l12 10 12-10c4-4.5 6-10.7 6-16s-2-11.5-6-16L32 6 20 16z" fill="#0F172A" fill-opacity="0.25" />
  <path d="M23 21c-2.2 3.1-3.5 7.2-3.5 11s1.3 7.9 3.5 11l9 7.8 9-7.8c2.2-3.1 3.5-7.2 3.5-11S44.2 24 42 21L32 13 23 21z" fill="#020617" fill-opacity="0.35" />
  <path d="M32 18c-5.2 0-9.2 4.5-9.2 9.9 0 5.9 2 12.5 9.2 18.1 7.2-5.6 9.2-12.2 9.2-18.1C41.2 22.5 37.2 18 32 18zm0 8.1c1.7 0 3 1.4 3 3.1s-1.3 3.1-3 3.1-3-1.4-3-3.1 1.3-3.1 3-3.1z" fill="white" fill-opacity="0.9" />
  <path d="M21 42c3.6 4.2 7.7 7 11 7s7.4-2.8 11-7" stroke="url(#glow)" stroke-width="3" stroke-linecap="round" />
</svg>